<svg width="206" height="207" viewBox="0 0 206 207" fill="none" xmlns="http://www.w3.org/2000/svg">
<g filter="url(#filter0_d_4_191)">
<rect x="25" y="30.5" width="156" height="156" rx="21" fill="#FFCC93"/>
</g>
<path d="M58.2981 108.693C58.2981 96.1569 60.1894 85.3766 63.9719 76.3525C67.7545 67.2744 72.7799 60.5199 79.0481 56.0889C83.9114 52.5765 88.9368 50.8203 94.1243 50.8203C102.554 50.8203 110.119 55.1162 116.82 63.708C125.195 74.3532 129.383 88.7809 129.383 106.991C129.383 119.744 127.546 130.578 123.871 139.494C120.197 148.41 115.496 154.895 109.768 158.947C104.094 162.946 98.6093 164.945 93.3137 164.945C82.8306 164.945 74.1038 158.758 67.1331 146.384C61.2431 135.955 58.2981 123.391 58.2981 108.693ZM74.1848 110.72C74.1848 125.85 76.0491 138.197 79.7776 147.762C82.8577 155.813 87.4508 159.839 93.5569 159.839C96.4749 159.839 99.5009 158.542 102.635 155.948C105.769 153.3 108.147 148.896 109.768 142.736C112.253 133.442 113.496 120.338 113.496 103.425C113.496 90.8883 112.199 80.4323 109.606 72.0566C107.66 65.8424 105.148 61.4385 102.068 58.8447C99.8521 57.0615 97.1773 56.1699 94.0432 56.1699C90.3687 56.1699 87.0995 57.818 84.2356 61.1143C80.345 65.5993 77.6972 72.651 76.2922 82.2695C74.8873 91.888 74.1848 101.371 74.1848 110.72ZM129.853 63.8701L156.601 50.8203H159.276V143.628C159.276 149.788 159.519 153.625 160.006 155.138C160.546 156.651 161.627 157.812 163.248 158.623C164.869 159.434 168.165 159.893 173.136 160.001V163H131.798V160.001C136.986 159.893 140.336 159.461 141.849 158.704C143.362 157.894 144.416 156.84 145.01 155.543C145.605 154.192 145.902 150.22 145.902 143.628V84.2959C145.902 76.2985 145.632 71.165 145.091 68.8955C144.713 67.1663 144.011 65.8965 142.984 65.0859C142.011 64.2754 140.823 63.8701 139.418 63.8701C137.418 63.8701 134.635 64.7077 131.069 66.3828L129.853 63.8701Z" fill="white" fill-opacity="0.25"/>
<path d="M46.4646 84.2713C45.1421 84.2713 43.9636 84.0419 42.929 83.5831C41.8945 83.1153 41.0758 82.4271 40.4731 81.5185C39.8793 80.6009 39.5825 79.4584 39.5825 78.0909C39.5825 76.9394 39.7939 75.9723 40.2167 75.1897C40.6395 74.407 41.2153 73.7773 41.944 73.3005C42.6727 72.8237 43.5003 72.4638 44.4269 72.2209C45.3625 71.978 46.3431 71.8071 47.3687 71.7081C48.5742 71.5822 49.5458 71.4652 50.2834 71.3573C51.0211 71.2403 51.5564 71.0694 51.8893 70.8445C52.2221 70.6196 52.3886 70.2867 52.3886 69.8459V69.7649C52.3886 68.9103 52.1187 68.2491 51.5789 67.7813C51.0481 67.3135 50.2924 67.0796 49.3119 67.0796C48.2773 67.0796 47.4541 67.309 46.8424 67.7678C46.2307 68.2176 45.8258 68.7844 45.6279 69.4681L40.3111 69.0363C40.581 67.7768 41.1118 66.6882 41.9035 65.7706C42.6951 64.844 43.7162 64.1333 44.9667 63.6385C46.2262 63.1347 47.6835 62.8828 49.3388 62.8828C50.4904 62.8828 51.5924 63.0178 52.645 63.2877C53.7065 63.5576 54.6466 63.9759 55.4653 64.5426C56.2929 65.1094 56.9451 65.8381 57.4219 66.7287C57.8987 67.6104 58.1371 68.6674 58.1371 69.8999V83.88H52.6854V81.0057H52.5235C52.1906 81.6534 51.7453 82.2247 51.1876 82.7195C50.6298 83.2053 49.9596 83.5876 49.1769 83.8665C48.3942 84.1364 47.4901 84.2713 46.4646 84.2713ZM48.1109 80.304C48.9565 80.304 49.7032 80.1376 50.3509 79.8047C50.9986 79.4629 51.5069 79.0041 51.8758 78.4283C52.2446 77.8525 52.429 77.2003 52.429 76.4716V74.272C52.2491 74.389 52.0017 74.497 51.6869 74.5959C51.381 74.6859 51.0346 74.7713 50.6478 74.8523C50.261 74.9243 49.8741 74.9917 49.4873 75.0547C49.1004 75.1087 48.7496 75.1582 48.4347 75.2032C47.76 75.3021 47.1708 75.4595 46.667 75.6755C46.1632 75.8914 45.7718 76.1837 45.493 76.5526C45.2141 76.9124 45.0746 77.3622 45.0746 77.902C45.0746 78.6847 45.358 79.2829 45.9248 79.6968C46.5005 80.1016 47.2292 80.304 48.1109 80.304ZM67.4685 83.88H61.2071L70.7476 56.2436H78.2774L87.8044 83.88H81.543L74.6205 62.559H74.4045L67.4685 83.88ZM67.0771 73.0171H81.8669V77.5782H67.0771V73.0171Z" fill="black"/>
<ellipse cx="150.19" cy="158.03" rx="17.55" ry="17.55" fill="#F0EAD6"/>
<path d="M156.371 152.96C156.371 152.408 155.923 151.96 155.371 151.96L146.371 151.96C145.819 151.96 145.371 152.408 145.371 152.96C145.371 153.512 145.819 153.96 146.371 153.96L154.371 153.96L154.371 161.96C154.371 162.512 154.819 162.96 155.371 162.96C155.923 162.96 156.371 162.512 156.371 161.96L156.371 152.96ZM145.047 164.698L156.078 153.667L154.664 152.253L143.633 163.284L145.047 164.698Z" fill="black"/>
<defs>
<filter id="filter0_d_4_191" x="0" y="0.5" width="206" height="206" filterUnits="userSpaceOnUse" color-interpolation-filters="sRGB">
<feFlood flood-opacity="0" result="BackgroundImageFix"/>
<feColorMatrix in="SourceAlpha" type="matrix" values="0 0 0 0 0 0 0 0 0 0 0 0 0 0 0 0 0 0 127 0" result="hardAlpha"/>
<feOffset dy="-5"/>
<feGaussianBlur stdDeviation="12.5"/>
<feComposite in2="hardAlpha" operator="out"/>
<feColorMatrix type="matrix" values="0 0 0 0 0 0 0 0 0 0 0 0 0 0 0 0 0 0 0.25 0"/>
<feBlend mode="normal" in2="BackgroundImageFix" result="effect1_dropShadow_4_191"/>
<feBlend mode="normal" in="SourceGraphic" in2="effect1_dropShadow_4_191" result="shape"/>
</filter>
</defs>
</svg>
