<svg width="31" height="32" viewBox="0 0 31 32" fill="none" xmlns="http://www.w3.org/2000/svg">
<path d="M12.9891 12.8629C13.3195 13.4295 14.0466 13.6209 14.6131 13.2906C15.1796 12.9602 15.371 12.2331 15.0408 11.6665L12.9891 12.8629ZM8.43154 16.9915C8.76192 17.5581 9.48901 17.7495 10.0556 17.419C10.6221 17.0888 10.8136 16.3617 10.4832 15.795L8.43154 16.9915ZM21.9048 13.8508L22.4941 14.8819C22.7692 14.7247 22.9699 14.4642 23.0519 14.1583C23.134 13.8523 23.0903 13.5263 22.9307 13.2527L21.9048 13.8508ZM18.3209 22.0064C18.6514 22.5729 19.3785 22.7644 19.945 22.4341C20.5116 22.1036 20.7031 21.3766 20.3726 20.8101L18.3209 22.0064ZM3.43563 12.0595C4.43894 11.486 5.42664 11.8385 5.76557 12.4197L7.81722 11.2233C6.68376 9.27963 4.139 8.92197 2.25717 9.99746L3.43563 12.0595ZM2.25717 9.99746C0.371659 11.075 -0.5978 13.4515 0.541551 15.4054L2.59319 14.209C2.26016 13.6379 2.43598 12.6308 3.43563 12.0595L2.25717 9.99746ZM7.65713 3.71947L8.99012 6.00534L11.0418 4.80894L9.70878 2.52307L7.65713 3.71947ZM8.99012 6.00534L12.9891 12.8629L15.0408 11.6665L11.0418 4.80894L8.99012 6.00534ZM10.4832 15.795L7.81722 11.2233L5.76557 12.4197L8.43154 16.9915L10.4832 15.795ZM7.81722 11.2233L4.48475 5.50866L2.43311 6.70506L5.76557 12.4197L7.81722 11.2233ZM5.32719 3.35919C6.3305 2.78579 7.3182 3.13827 7.65713 3.71947L9.70878 2.52307C8.57532 0.579367 6.03056 0.221708 4.14873 1.29719L5.32719 3.35919ZM4.14873 1.29719C2.26322 2.37479 1.29376 4.75125 2.43311 6.70506L4.48475 5.50866C4.15173 4.93757 4.32754 3.93051 5.32719 3.35919L4.14873 1.29719ZM14.2141 3.01974L18.2131 9.87735L20.2648 8.68095L16.2658 1.82334L14.2141 3.01974ZM18.2131 9.87735L20.8791 14.449L22.9307 13.2527L20.2648 8.68095L18.2131 9.87735ZM11.8842 2.65947C12.8876 2.08607 13.8753 2.43855 14.2141 3.01974L16.2658 1.82334C15.1323 -0.120355 12.5875 -0.478014 10.7057 0.597465L11.8842 2.65947ZM10.7057 0.597465C8.82023 1.67507 7.85077 4.05152 8.99012 6.00534L11.0418 4.80894C10.7087 4.23785 10.8845 3.23079 11.8842 2.65947L10.7057 0.597465ZM23.4372 6.89175L27.436 13.7493L29.4877 12.553L25.4887 5.69535L23.4372 6.89175ZM21.1071 6.53148C22.1105 5.95808 23.0982 6.31056 23.4372 6.89175L25.4887 5.69535C24.3553 3.75167 21.8106 3.394 19.9287 4.46949L21.1071 6.53148ZM19.9287 4.46949C18.0432 5.54708 17.0738 7.92355 18.2131 9.87735L20.2648 8.68095C19.9317 8.10986 20.1076 7.1028 21.1071 6.53148L19.9287 4.46949ZM0.541551 15.4054L6.53998 25.6918L8.59163 24.4953L2.59319 14.209L0.541551 15.4054ZM22.7565 27.2348C17.4256 30.2816 11.1391 28.8638 8.59163 24.4953L6.53998 25.6918C9.882 31.4228 17.7255 32.8456 23.935 29.2969L22.7565 27.2348ZM27.436 13.7493C29.9776 18.1078 28.0839 24.1902 22.7565 27.2348L23.935 29.2969C30.1483 25.7459 32.8357 18.2941 29.4877 12.553L27.436 13.7493ZM20.3726 20.8101C19.3034 18.9764 20.0518 16.2776 22.4941 14.8819L21.3157 12.8199C17.9877 14.722 16.4455 18.7902 18.3209 22.0064L20.3726 20.8101Z" fill="black"/>
</svg>
