<svg width="206" height="207" viewBox="0 0 206 207" fill="none" xmlns="http://www.w3.org/2000/svg">
<g filter="url(#filter0_d_4_198)">
<rect x="25" y="30.5" width="156" height="156" rx="21" fill="#FFCC93"/>
</g>
<path d="M50.2981 108.693C50.2981 96.1569 52.1894 85.3766 55.9719 76.3525C59.7545 67.2744 64.7799 60.5199 71.0481 56.0889C75.9114 52.5765 80.9368 50.8203 86.1243 50.8203C94.554 50.8203 102.119 55.1162 108.82 63.708C117.195 74.3532 121.383 88.7809 121.383 106.991C121.383 119.744 119.546 130.578 115.871 139.494C112.197 148.41 107.496 154.895 101.768 158.947C96.094 162.946 90.6093 164.945 85.3137 164.945C74.8306 164.945 66.1038 158.758 59.1331 146.384C53.2431 135.955 50.2981 123.391 50.2981 108.693ZM66.1848 110.72C66.1848 125.85 68.0491 138.197 71.7776 147.762C74.8577 155.813 79.4508 159.839 85.5569 159.839C88.4749 159.839 91.5009 158.542 94.635 155.948C97.7691 153.3 100.147 148.896 101.768 142.736C104.253 133.442 105.496 120.338 105.496 103.425C105.496 90.8883 104.199 80.4323 101.606 72.0566C99.6604 65.8424 97.1477 61.4385 94.0676 58.8447C91.8521 57.0615 89.1773 56.1699 86.0432 56.1699C82.3687 56.1699 79.0995 57.818 76.2356 61.1143C72.345 65.5993 69.6972 72.651 68.2922 82.2695C66.8873 91.888 66.1848 101.371 66.1848 110.72ZM178.51 141.845L170.81 163H105.966V160.001C125.041 142.601 138.469 128.39 146.251 117.366C154.032 106.343 157.923 96.265 157.923 87.1328C157.923 80.1621 155.788 74.4342 151.519 69.9492C147.25 65.4642 142.144 63.2217 136.2 63.2217C130.796 63.2217 125.933 64.8158 121.61 68.0039C117.341 71.138 114.18 75.7581 112.127 81.8643H109.128C110.478 71.8675 113.937 64.1943 119.503 58.8447C125.122 53.4951 132.12 50.8203 140.496 50.8203C149.412 50.8203 156.842 53.6842 162.786 59.4121C168.784 65.14 171.783 71.8945 171.783 79.6758C171.783 85.2415 170.486 90.8073 167.892 96.373C163.894 105.127 157.409 114.394 148.439 124.175C134.984 138.873 126.581 147.735 123.231 150.761H151.924C157.76 150.761 161.84 150.545 164.164 150.112C166.541 149.68 168.676 148.815 170.567 147.519C172.458 146.168 174.106 144.276 175.511 141.845H178.51Z" fill="white" fill-opacity="0.25"/>
<path d="M50.0001 84.2848C47.868 84.2848 46.0327 83.853 44.4944 82.9894C42.965 82.1167 41.7865 80.8843 40.9589 79.2919C40.1312 77.6906 39.7174 75.7969 39.7174 73.6108C39.7174 71.4787 40.1312 69.6075 40.9589 67.9972C41.7865 66.3869 42.9515 65.1319 44.4539 64.2323C45.9653 63.3327 47.7375 62.8828 49.7707 62.8828C51.1381 62.8828 52.4111 63.1033 53.5896 63.5441C54.7771 63.9759 55.8116 64.6281 56.6932 65.5007C57.5839 66.3734 58.2766 67.4709 58.7714 68.7934C59.2662 70.1068 59.5136 71.6452 59.5136 73.4084V74.9872H42.0114V71.4247H54.1023C54.1023 70.5971 53.9224 69.8639 53.5626 69.2252C53.2027 68.5864 52.7034 68.0872 52.0647 67.7273C51.435 67.3585 50.7018 67.174 49.8651 67.174C48.9925 67.174 48.2188 67.3765 47.5441 67.7813C46.8784 68.1771 46.3566 68.7124 45.9788 69.3871C45.6009 70.0528 45.4075 70.795 45.3985 71.6137V75.0007C45.3985 76.0263 45.5874 76.9124 45.9653 77.6591C46.3521 78.4058 46.8964 78.9816 47.5981 79.3864C48.2998 79.7912 49.1319 79.9936 50.0945 79.9936C50.7333 79.9936 51.318 79.9037 51.8488 79.7238C52.3796 79.5438 52.8339 79.2739 53.2117 78.9141C53.5896 78.5542 53.8774 78.1134 54.0754 77.5917L59.3921 77.9425C59.1222 79.22 58.569 80.3355 57.7323 81.2891C56.9047 82.2337 55.8341 82.9714 54.5207 83.5022C53.2162 84.0239 51.7093 84.2848 50.0001 84.2848ZM63.3729 83.88V56.2436H81.9951V61.0611H69.216V67.6463H81.037V72.4638H69.216V79.0625H82.0491V83.88H63.3729Z" fill="black"/>
<ellipse cx="150.19" cy="158.03" rx="17.55" ry="17.55" fill="#F0EAD6"/>
<path d="M156.371 152.96C156.371 152.408 155.923 151.96 155.371 151.96L146.371 151.96C145.819 151.96 145.371 152.408 145.371 152.96C145.371 153.512 145.819 153.96 146.371 153.96L154.371 153.96L154.371 161.96C154.371 162.512 154.819 162.96 155.371 162.96C155.923 162.96 156.371 162.512 156.371 161.96L156.371 152.96ZM145.047 164.698L156.078 153.667L154.664 152.253L143.633 163.284L145.047 164.698Z" fill="black"/>
<defs>
<filter id="filter0_d_4_198" x="0" y="0.5" width="206" height="206" filterUnits="userSpaceOnUse" color-interpolation-filters="sRGB">
<feFlood flood-opacity="0" result="BackgroundImageFix"/>
<feColorMatrix in="SourceAlpha" type="matrix" values="0 0 0 0 0 0 0 0 0 0 0 0 0 0 0 0 0 0 127 0" result="hardAlpha"/>
<feOffset dy="-5"/>
<feGaussianBlur stdDeviation="12.5"/>
<feComposite in2="hardAlpha" operator="out"/>
<feColorMatrix type="matrix" values="0 0 0 0 0 0 0 0 0 0 0 0 0 0 0 0 0 0 0.25 0"/>
<feBlend mode="normal" in2="BackgroundImageFix" result="effect1_dropShadow_4_198"/>
<feBlend mode="normal" in="SourceGraphic" in2="effect1_dropShadow_4_198" result="shape"/>
</filter>
</defs>
</svg>
