<svg width="32" height="32" viewBox="0 0 32 32" fill="none" xmlns="http://www.w3.org/2000/svg">
<path d="M13.4891 13.6349C13.8195 14.2015 14.5466 14.3929 15.1131 14.0625C15.6796 13.7322 15.871 13.0051 15.5408 12.4385L13.4891 13.6349ZM8.93154 17.7635C9.26192 18.33 9.98901 18.5215 10.5556 18.191C11.1221 17.8607 11.3136 17.1337 10.9832 16.567L8.93154 17.7635ZM22.4048 14.6228L22.9941 15.6539C23.2692 15.4966 23.4699 15.2362 23.5519 14.9303C23.634 14.6242 23.5903 14.2983 23.4307 14.0247L22.4048 14.6228ZM18.8209 22.7784C19.1514 23.3449 19.8785 23.5363 20.445 23.2061C21.0116 22.8756 21.2031 22.1485 20.8726 21.582L18.8209 22.7784ZM3.93563 12.8314C4.93894 12.258 5.92664 12.6105 6.26557 13.1917L8.31722 11.9953C7.18376 10.0516 4.639 9.69394 2.75717 10.7694L3.93563 12.8314ZM2.75717 10.7694C0.871659 11.847 -0.0978 14.2235 1.04155 16.1773L3.09319 14.981C2.76016 14.4098 2.93598 13.4027 3.93563 12.8314L2.75717 10.7694ZM8.15713 4.49144L9.49012 6.77731L11.5418 5.58091L10.2088 3.29504L8.15713 4.49144ZM9.49012 6.77731L13.4891 13.6349L15.5408 12.4385L11.5418 5.58091L9.49012 6.77731ZM10.9832 16.567L8.31722 11.9953L6.26557 13.1917L8.93154 17.7635L10.9832 16.567ZM8.31722 11.9953L4.98475 6.28064L2.93311 7.47704L6.26557 13.1917L8.31722 11.9953ZM5.82719 4.13117C6.8305 3.55776 7.8182 3.91024 8.15713 4.49144L10.2088 3.29504C9.07532 1.35134 6.53056 0.993681 4.64873 2.06916L5.82719 4.13117ZM4.64873 2.06916C2.76322 3.14676 1.79376 5.52322 2.93311 7.47704L4.98475 6.28064C4.65173 5.70954 4.82754 4.70248 5.82719 4.13117L4.64873 2.06916ZM14.7141 3.79172L18.7131 10.6493L20.7648 9.45292L16.7658 2.59532L14.7141 3.79172ZM18.7131 10.6493L21.3791 15.221L23.4307 14.0247L20.7648 9.45292L18.7131 10.6493ZM12.3842 3.43144C13.3876 2.85804 14.3753 3.21052 14.7141 3.79172L16.7658 2.59532C15.6323 0.651617 13.0875 0.293959 11.2057 1.36944L12.3842 3.43144ZM11.2057 1.36944C9.32023 2.44704 8.35077 4.82349 9.49012 6.77731L11.5418 5.58091C11.2087 5.00982 11.3845 4.00276 12.3842 3.43144L11.2057 1.36944ZM23.9372 7.66373L27.936 14.5213L29.9877 13.3249L25.9887 6.46733L23.9372 7.66373ZM21.6071 7.30345C22.6105 6.73005 23.5982 7.08253 23.9372 7.66373L25.9887 6.46733C24.8553 4.52364 22.3106 4.16597 20.4287 5.24146L21.6071 7.30345ZM20.4287 5.24146C18.5432 6.31905 17.5738 8.69552 18.7131 10.6493L20.7648 9.45292C20.4317 8.88183 20.6076 7.87477 21.6071 7.30345L20.4287 5.24146ZM1.04155 16.1773L7.03998 26.4638L9.09163 25.2672L3.09319 14.981L1.04155 16.1773ZM23.2565 28.0067C17.9256 31.0535 11.6391 29.6358 9.09163 25.2672L7.03998 26.4638C10.382 32.1948 18.2255 33.6176 24.435 30.0689L23.2565 28.0067ZM27.936 14.5213C30.4776 18.8798 28.5839 24.9621 23.2565 28.0067L24.435 30.0689C30.6483 26.5179 33.3357 19.0661 29.9877 13.3249L27.936 14.5213ZM20.8726 21.582C19.8034 19.7484 20.5518 17.0496 22.9941 15.6539L21.8157 13.5919C18.4877 15.494 16.9455 19.5622 18.8209 22.7784L20.8726 21.582Z" fill="#F0EAD6"/>
</svg>
