<svg width="26" height="26" viewBox="0 0 26 26" fill="none" xmlns="http://www.w3.org/2000/svg">
<path d="M23.932 12.8377V14.5057C23.932 18.7833 23.932 20.9222 22.6472 22.2511C21.3625 23.58 19.2947 23.58 15.1592 23.58H10.7728C6.63725 23.58 4.56949 23.58 3.28474 22.2511C2 20.9222 2 18.7833 2 14.5057V12.8377C2 10.3282 2 9.07345 2.56935 8.03328C3.13871 6.99312 4.17889 6.34755 6.25922 5.05644L8.45242 3.69528C10.6515 2.33047 11.7511 1.64807 12.966 1.64807C14.1809 1.64807 15.2805 2.33047 17.4796 3.69528L19.6728 5.05643C21.7531 6.34755 22.7933 6.99312 23.3626 8.03328" stroke="#F0EAD6" stroke-width="3" stroke-linecap="round"/>
<path d="M16.6213 18.9277H9.97525" stroke="#F0EAD6" stroke-width="3" stroke-linecap="round"/>
</svg>
