<svg width="206" height="207" viewBox="0 0 206 207" fill="none" xmlns="http://www.w3.org/2000/svg">
<g filter="url(#filter0_d_4_205)">
<rect x="25" y="30.5" width="156" height="156" rx="21" fill="#FFCC93"/>
</g>
<path d="M50.2981 108.693C50.2981 96.1569 52.1894 85.3766 55.9719 76.3525C59.7545 67.2744 64.7799 60.5199 71.0481 56.0889C75.9114 52.5765 80.9368 50.8203 86.1243 50.8203C94.554 50.8203 102.119 55.1162 108.82 63.708C117.195 74.3532 121.383 88.7809 121.383 106.991C121.383 119.744 119.546 130.578 115.871 139.494C112.197 148.41 107.496 154.895 101.768 158.947C96.094 162.946 90.6093 164.945 85.3137 164.945C74.8306 164.945 66.1038 158.758 59.1331 146.384C53.2431 135.955 50.2981 123.391 50.2981 108.693ZM66.1848 110.72C66.1848 125.85 68.0491 138.197 71.7776 147.762C74.8577 155.813 79.4508 159.839 85.5569 159.839C88.4749 159.839 91.5009 158.542 94.635 155.948C97.7691 153.3 100.147 148.896 101.768 142.736C104.253 133.442 105.496 120.338 105.496 103.425C105.496 90.8883 104.199 80.4323 101.606 72.0566C99.6604 65.8424 97.1477 61.4385 94.0676 58.8447C91.8521 57.0615 89.1773 56.1699 86.0432 56.1699C82.3687 56.1699 79.0995 57.818 76.2356 61.1143C72.345 65.5993 69.6972 72.651 68.2922 82.2695C66.8873 91.888 66.1848 101.371 66.1848 110.72ZM110.83 74.002C113.964 66.599 117.909 60.8981 122.664 56.8994C127.473 52.8467 133.444 50.8203 140.577 50.8203C149.385 50.8203 156.139 53.6842 160.84 59.4121C164.407 63.681 166.19 68.2471 166.19 73.1104C166.19 81.1077 161.165 89.3753 151.114 97.9131C157.868 100.561 162.975 104.343 166.433 109.261C169.892 114.178 171.621 119.96 171.621 126.606C171.621 136.117 168.595 144.357 162.543 151.328C154.653 160.406 143.225 164.945 128.256 164.945C120.853 164.945 115.801 164.027 113.099 162.189C110.451 160.352 109.128 158.38 109.128 156.272C109.128 154.705 109.749 153.327 110.992 152.139C112.289 150.95 113.829 150.355 115.612 150.355C116.963 150.355 118.341 150.572 119.746 151.004C120.664 151.274 122.745 152.274 125.987 154.003C129.229 155.678 131.472 156.678 132.715 157.002C134.714 157.596 136.848 157.894 139.118 157.894C144.63 157.894 149.412 155.759 153.465 151.49C157.571 147.221 159.625 142.169 159.625 136.333C159.625 132.064 158.679 127.903 156.788 123.851C155.383 120.825 153.843 118.528 152.168 116.961C149.844 114.799 146.656 112.854 142.603 111.125C138.55 109.342 134.417 108.45 130.202 108.45H127.608V106.019C131.877 105.478 136.146 103.938 140.415 101.398C144.738 98.8587 147.872 95.8057 149.817 92.2393C151.762 88.6729 152.735 84.7552 152.735 80.4863C152.735 74.9206 150.979 70.4355 147.466 67.0312C144.008 63.5729 139.685 61.8438 134.498 61.8438C126.122 61.8438 119.124 66.3288 113.505 75.2988L110.83 74.002Z" fill="white" fill-opacity="0.25"/>
<path d="M40.554 83.88V63.1527H46.3026V83.88H40.554ZM43.4418 60.4809C42.5872 60.4809 41.854 60.1975 41.2423 59.6307C40.6395 59.055 40.3381 58.3667 40.3381 57.5661C40.3381 56.7744 40.6395 56.0952 41.2423 55.5284C41.854 54.9527 42.5872 54.6648 43.4418 54.6648C44.2965 54.6648 45.0252 54.9527 45.6279 55.5284C46.2397 56.0952 46.5455 56.7744 46.5455 57.5661C46.5455 58.3667 46.2397 59.055 45.6279 59.6307C45.0252 60.1975 44.2965 60.4809 43.4418 60.4809ZM56.8586 56.2436V83.88H51.0155V56.2436H56.8586Z" fill="black"/>
<ellipse cx="150.19" cy="158.03" rx="17.55" ry="17.55" fill="#F0EAD6"/>
<path d="M156.371 152.96C156.371 152.408 155.923 151.96 155.371 151.96L146.371 151.96C145.819 151.96 145.371 152.408 145.371 152.96C145.371 153.512 145.819 153.96 146.371 153.96L154.371 153.96L154.371 161.96C154.371 162.512 154.819 162.96 155.371 162.96C155.923 162.96 156.371 162.512 156.371 161.96L156.371 152.96ZM145.047 164.698L156.078 153.667L154.664 152.253L143.633 163.284L145.047 164.698Z" fill="black"/>
<defs>
<filter id="filter0_d_4_205" x="0" y="0.5" width="206" height="206" filterUnits="userSpaceOnUse" color-interpolation-filters="sRGB">
<feFlood flood-opacity="0" result="BackgroundImageFix"/>
<feColorMatrix in="SourceAlpha" type="matrix" values="0 0 0 0 0 0 0 0 0 0 0 0 0 0 0 0 0 0 127 0" result="hardAlpha"/>
<feOffset dy="-5"/>
<feGaussianBlur stdDeviation="12.5"/>
<feComposite in2="hardAlpha" operator="out"/>
<feColorMatrix type="matrix" values="0 0 0 0 0 0 0 0 0 0 0 0 0 0 0 0 0 0 0.25 0"/>
<feBlend mode="normal" in2="BackgroundImageFix" result="effect1_dropShadow_4_205"/>
<feBlend mode="normal" in="SourceGraphic" in2="effect1_dropShadow_4_205" result="shape"/>
</filter>
</defs>
</svg>
