<svg width="206" height="207" viewBox="0 0 206 207" fill="none" xmlns="http://www.w3.org/2000/svg">
<g filter="url(#filter0_d_4_212)">
<rect x="25" y="30.5" width="156" height="156" rx="21" fill="#FFCC93"/>
</g>
<path d="M50.2981 108.693C50.2981 96.1569 52.1894 85.3766 55.9719 76.3525C59.7545 67.2744 64.7799 60.5199 71.0481 56.0889C75.9114 52.5765 80.9368 50.8203 86.1243 50.8203C94.554 50.8203 102.119 55.1162 108.82 63.708C117.195 74.3532 121.383 88.7809 121.383 106.991C121.383 119.744 119.546 130.578 115.871 139.494C112.197 148.41 107.496 154.895 101.768 158.947C96.094 162.946 90.6093 164.945 85.3137 164.945C74.8306 164.945 66.1038 158.758 59.1331 146.384C53.2431 135.955 50.2981 123.391 50.2981 108.693ZM66.1848 110.72C66.1848 125.85 68.0491 138.197 71.7776 147.762C74.8577 155.813 79.4508 159.839 85.5569 159.839C88.4749 159.839 91.5009 158.542 94.635 155.948C97.7691 153.3 100.147 148.896 101.768 142.736C104.253 133.442 105.496 120.338 105.496 103.425C105.496 90.8883 104.199 80.4323 101.606 72.0566C99.6604 65.8424 97.1477 61.4385 94.0676 58.8447C91.8521 57.0615 89.1773 56.1699 86.0432 56.1699C82.3687 56.1699 79.0995 57.818 76.2356 61.1143C72.345 65.5993 69.6972 72.651 68.2922 82.2695C66.8873 91.888 66.1848 101.371 66.1848 110.72ZM179.645 122.473V133.982H164.893V163H151.519V133.982H104.994V123.607L155.977 50.8203H164.893V122.473H179.645ZM151.519 122.473V67.9229L112.937 122.473H151.519Z" fill="white" fill-opacity="0.25"/>
<path d="M49.9191 84.2848C47.823 84.2848 46.0102 83.8395 44.4809 82.9489C42.9605 82.0493 41.7865 80.7988 40.9589 79.1975C40.1312 77.5872 39.7174 75.7204 39.7174 73.5973C39.7174 71.4562 40.1312 69.585 40.9589 67.9837C41.7865 66.3734 42.9605 65.1229 44.4809 64.2323C46.0102 63.3327 47.823 62.8828 49.9191 62.8828C52.0152 62.8828 53.8235 63.3327 55.3438 64.2323C56.8732 65.1229 58.0517 66.3734 58.8793 67.9837C59.707 69.585 60.1208 71.4562 60.1208 73.5973C60.1208 75.7204 59.707 77.5872 58.8793 79.1975C58.0517 80.7988 56.8732 82.0493 55.3438 82.9489C53.8235 83.8395 52.0152 84.2848 49.9191 84.2848ZM49.9461 79.8317C50.8997 79.8317 51.6959 79.5618 52.3346 79.0221C52.9733 78.4733 53.4546 77.7266 53.7785 76.782C54.1113 75.8374 54.2778 74.7623 54.2778 73.5569C54.2778 72.3514 54.1113 71.2763 53.7785 70.3317C53.4546 69.3871 52.9733 68.6404 52.3346 68.0917C51.6959 67.5429 50.8997 67.2685 49.9461 67.2685C48.9835 67.2685 48.1738 67.5429 47.5171 68.0917C46.8694 68.6404 46.3791 69.3871 46.0462 70.3317C45.7224 71.2763 45.5604 72.3514 45.5604 73.5569C45.5604 74.7623 45.7224 75.8374 46.0462 76.782C46.3791 77.7266 46.8694 78.4733 47.5171 79.0221C48.1738 79.5618 48.9835 79.8317 49.9461 79.8317ZM89.363 70.0618C89.363 73.0756 88.7917 75.6395 87.6492 77.7536C86.5157 79.8677 84.9683 81.4825 83.0072 82.598C81.055 83.7046 78.8599 84.2578 76.4219 84.2578C73.966 84.2578 71.7619 83.7001 69.8097 82.5846C67.8575 81.469 66.3147 79.8542 65.1812 77.7401C64.0477 75.626 63.4809 73.0666 63.4809 70.0618C63.4809 67.0481 64.0477 64.4842 65.1812 62.3701C66.3147 60.256 67.8575 58.6456 69.8097 57.5391C71.7619 56.4236 73.966 55.8658 76.4219 55.8658C78.8599 55.8658 81.055 56.4236 83.0072 57.5391C84.9683 58.6456 86.5157 60.256 87.6492 62.3701C88.7917 64.4842 89.363 67.0481 89.363 70.0618ZM83.439 70.0618C83.439 68.1096 83.1466 66.4633 82.5619 65.1229C81.9861 63.7825 81.1719 62.7659 80.1194 62.0732C79.0668 61.3805 77.8343 61.0341 76.4219 61.0341C75.0095 61.0341 73.7771 61.3805 72.7245 62.0732C71.6719 62.7659 70.8533 63.7825 70.2685 65.1229C69.6928 66.4633 69.4049 68.1096 69.4049 70.0618C69.4049 72.014 69.6928 73.6603 70.2685 75.0007C70.8533 76.3412 71.6719 77.3578 72.7245 78.0505C73.7771 78.7432 75.0095 79.0895 76.4219 79.0895C77.8343 79.0895 79.0668 78.7432 80.1194 78.0505C81.1719 77.3578 81.9861 76.3412 82.5619 75.0007C83.1466 73.6603 83.439 72.014 83.439 70.0618Z" fill="black"/>
<ellipse cx="150.19" cy="158.03" rx="17.55" ry="17.55" fill="#F0EAD6"/>
<path d="M156.371 152.96C156.371 152.408 155.923 151.96 155.371 151.96L146.371 151.96C145.819 151.96 145.371 152.408 145.371 152.96C145.371 153.512 145.819 153.96 146.371 153.96L154.371 153.96L154.371 161.96C154.371 162.512 154.819 162.96 155.371 162.96C155.923 162.96 156.371 162.512 156.371 161.96L156.371 152.96ZM145.047 164.698L156.078 153.667L154.664 152.253L143.633 163.284L145.047 164.698Z" fill="black"/>
<defs>
<filter id="filter0_d_4_212" x="0" y="0.5" width="206" height="206" filterUnits="userSpaceOnUse" color-interpolation-filters="sRGB">
<feFlood flood-opacity="0" result="BackgroundImageFix"/>
<feColorMatrix in="SourceAlpha" type="matrix" values="0 0 0 0 0 0 0 0 0 0 0 0 0 0 0 0 0 0 127 0" result="hardAlpha"/>
<feOffset dy="-5"/>
<feGaussianBlur stdDeviation="12.5"/>
<feComposite in2="hardAlpha" operator="out"/>
<feColorMatrix type="matrix" values="0 0 0 0 0 0 0 0 0 0 0 0 0 0 0 0 0 0 0.25 0"/>
<feBlend mode="normal" in2="BackgroundImageFix" result="effect1_dropShadow_4_212"/>
<feBlend mode="normal" in="SourceGraphic" in2="effect1_dropShadow_4_212" result="shape"/>
</filter>
</defs>
</svg>
