<svg width="206" height="207" viewBox="0 0 206 207" fill="none" xmlns="http://www.w3.org/2000/svg">
<g filter="url(#filter0_d_4_219)">
<rect x="25" y="30.5" width="156" height="156" rx="21" fill="#FFCC93"/>
</g>
<path d="M50.2981 108.693C50.2981 96.1569 52.1894 85.3766 55.9719 76.3525C59.7545 67.2744 64.7799 60.5199 71.0481 56.0889C75.9114 52.5765 80.9368 50.8203 86.1243 50.8203C94.554 50.8203 102.119 55.1162 108.82 63.708C117.195 74.3532 121.383 88.7809 121.383 106.991C121.383 119.744 119.546 130.578 115.871 139.494C112.197 148.41 107.496 154.895 101.768 158.947C96.094 162.946 90.6093 164.945 85.3137 164.945C74.8306 164.945 66.1038 158.758 59.1331 146.384C53.2431 135.955 50.2981 123.391 50.2981 108.693ZM66.1848 110.72C66.1848 125.85 68.0491 138.197 71.7776 147.762C74.8577 155.813 79.4508 159.839 85.5569 159.839C88.4749 159.839 91.5009 158.542 94.635 155.948C97.7691 153.3 100.147 148.896 101.768 142.736C104.253 133.442 105.496 120.338 105.496 103.425C105.496 90.8883 104.199 80.4323 101.606 72.0566C99.6604 65.8424 97.1477 61.4385 94.0676 58.8447C91.8521 57.0615 89.1773 56.1699 86.0432 56.1699C82.3687 56.1699 79.0995 57.818 76.2356 61.1143C72.345 65.5993 69.6972 72.651 68.2922 82.2695C66.8873 91.888 66.1848 101.371 66.1848 110.72ZM174.458 53.0898L168.135 66.8691H135.065L127.851 81.6211C142.171 83.7285 153.519 89.0511 161.894 97.5889C169.081 104.938 172.674 113.584 172.674 123.526C172.674 129.308 171.486 134.658 169.108 139.575C166.784 144.493 163.84 148.68 160.273 152.139C156.707 155.597 152.735 158.38 148.358 160.487C142.144 163.459 135.768 164.945 129.229 164.945C122.637 164.945 117.827 163.838 114.801 161.622C111.829 159.353 110.343 156.867 110.343 154.165C110.343 152.652 110.965 151.328 112.208 150.193C113.451 149.005 115.018 148.41 116.909 148.41C118.314 148.41 119.53 148.626 120.556 149.059C121.637 149.491 123.447 150.599 125.987 152.382C130.04 155.192 134.146 156.597 138.307 156.597C144.63 156.597 150.168 154.219 154.923 149.464C159.733 144.655 162.137 138.819 162.137 131.956C162.137 125.31 160.003 119.122 155.734 113.395C151.465 107.613 145.575 103.155 138.064 100.021C132.174 97.5889 124.15 96.1839 113.991 95.8057L135.065 53.0898H174.458Z" fill="white" fill-opacity="0.25"/>
<path d="M53.8459 75.0547V63.1527H59.5945V83.88H54.0754V80.1151H53.8594C53.3916 81.3296 52.6135 82.3057 51.5249 83.0434C50.4454 83.781 49.1274 84.1499 47.5711 84.1499C46.1857 84.1499 44.9667 83.835 43.9141 83.2053C42.8616 82.5756 42.0384 81.6804 41.4447 80.5199C40.8599 79.3594 40.563 77.9695 40.554 76.3502V63.1527H46.3026V75.3246C46.3116 76.5481 46.64 77.5152 47.2877 78.2259C47.9354 78.9366 48.8036 79.2919 49.8921 79.2919C50.5848 79.2919 51.2325 79.1345 51.8353 78.8196C52.438 78.4958 52.9238 78.019 53.2927 77.3892C53.6705 76.7595 53.8549 75.9813 53.8459 75.0547ZM81.371 56.2436H87.214V74.1911C87.214 76.2062 86.7327 77.9695 85.7701 79.4809C84.8165 80.9922 83.4806 82.1707 81.7623 83.0164C80.044 83.853 78.0424 84.2713 75.7573 84.2713C73.4633 84.2713 71.4572 83.853 69.7389 83.0164C68.0206 82.1707 66.6847 80.9922 65.7311 79.4809C64.7775 77.9695 64.3007 76.2062 64.3007 74.1911V56.2436H70.1437V73.6918C70.1437 74.7444 70.3731 75.68 70.8319 76.4986C71.2997 77.3173 71.9564 77.9605 72.8021 78.4283C73.6477 78.8961 74.6328 79.13 75.7573 79.13C76.8909 79.13 77.876 78.8961 78.7126 78.4283C79.5582 77.9605 80.2105 77.3173 80.6693 76.4986C81.1371 75.68 81.371 74.7444 81.371 73.6918V56.2436Z" fill="black"/>
<ellipse cx="150.19" cy="158.03" rx="17.55" ry="17.55" fill="#F0EAD6"/>
<path d="M156.371 152.96C156.371 152.408 155.923 151.96 155.371 151.96L146.371 151.96C145.819 151.96 145.371 152.408 145.371 152.96C145.371 153.512 145.819 153.96 146.371 153.96L154.371 153.96L154.371 161.96C154.371 162.512 154.819 162.96 155.371 162.96C155.923 162.96 156.371 162.512 156.371 161.96L156.371 152.96ZM145.047 164.698L156.078 153.667L154.664 152.253L143.633 163.284L145.047 164.698Z" fill="black"/>
<defs>
<filter id="filter0_d_4_219" x="0" y="0.5" width="206" height="206" filterUnits="userSpaceOnUse" color-interpolation-filters="sRGB">
<feFlood flood-opacity="0" result="BackgroundImageFix"/>
<feColorMatrix in="SourceAlpha" type="matrix" values="0 0 0 0 0 0 0 0 0 0 0 0 0 0 0 0 0 0 127 0" result="hardAlpha"/>
<feOffset dy="-5"/>
<feGaussianBlur stdDeviation="12.5"/>
<feComposite in2="hardAlpha" operator="out"/>
<feColorMatrix type="matrix" values="0 0 0 0 0 0 0 0 0 0 0 0 0 0 0 0 0 0 0.25 0"/>
<feBlend mode="normal" in2="BackgroundImageFix" result="effect1_dropShadow_4_219"/>
<feBlend mode="normal" in="SourceGraphic" in2="effect1_dropShadow_4_219" result="shape"/>
</filter>
</defs>
</svg>
