<svg width="28" height="25" viewBox="0 0 28 25" fill="none" xmlns="http://www.w3.org/2000/svg">
<path fill-rule="evenodd" clip-rule="evenodd" d="M4.99255 2.6717C3.74991 2.6717 2.74255 3.69505 2.74255 4.95742C2.74255 6.21978 3.74991 7.24313 4.99255 7.24313V2.6717ZM4.99255 9.52884C2.50728 9.52884 0.492554 7.48214 0.492554 4.95742C0.492554 2.43269 2.50728 0.385986 4.99255 0.385986H22.9926C25.4779 0.385986 27.4926 2.43269 27.4926 4.95742C27.4926 7.48214 25.4779 9.52884 22.9926 9.52884V10.7948C22.9926 14.8116 19.5571 18.1262 15.1176 18.6107V22.1003H18.4926V24.386H9.49255V22.1003H12.8676V18.6107C8.42796 18.1262 4.99255 14.8116 4.99255 10.7948V9.52884ZM13.9926 16.386C18.0469 16.386 20.7426 13.5749 20.7426 10.7948V2.6717H7.24255V10.7948C7.24255 13.5749 9.93825 16.386 13.9926 16.386ZM25.2426 4.95742C25.2426 6.21978 24.2352 7.24313 22.9926 7.24313V2.6717C24.2352 2.6717 25.2426 3.69505 25.2426 4.95742Z" fill="#F0EAD6"/>
</svg>
