<svg width="250" height="255" viewBox="0 0 250 255" fill="none" xmlns="http://www.w3.org/2000/svg">
<g filter="url(#filter0_d_1_24)">
<rect x="25" y="30" width="200" height="200" rx="21" fill="#FFCC93"/>
</g>
<path d="M70.8408 132.009C70.8408 115.621 73.3132 101.528 78.2578 89.7319C83.2025 77.8647 89.7718 69.035 97.9658 63.2427C104.323 58.6512 110.893 56.3555 117.674 56.3555C128.693 56.3555 138.583 61.9712 147.342 73.2026C158.291 87.1183 163.765 105.979 163.765 129.784C163.765 146.454 161.363 160.617 156.56 172.272C151.757 183.928 145.611 192.404 138.124 197.702C130.707 202.929 123.537 205.543 116.614 205.543C102.91 205.543 91.5024 197.455 82.3901 181.279C74.6906 167.646 70.8408 151.222 70.8408 132.009ZM91.6084 134.658C91.6084 154.436 94.0454 170.577 98.9194 183.08C102.946 193.605 108.95 198.868 116.932 198.868C120.747 198.868 124.702 197.172 128.799 193.782C132.896 190.32 136.004 184.563 138.124 176.511C141.373 164.361 142.998 147.231 142.998 125.122C142.998 108.734 141.302 95.0651 137.912 84.1162C135.369 75.9928 132.084 70.2358 128.058 66.8452C125.161 64.5142 121.665 63.3486 117.568 63.3486C112.764 63.3486 108.491 65.5031 104.747 69.812C99.6611 75.675 96.1999 84.8932 94.3633 97.4668C92.5267 110.04 91.6084 122.437 91.6084 134.658ZM164.38 73.4146L199.346 56.3555H202.842V177.676C202.842 185.729 203.16 190.744 203.796 192.722C204.502 194.7 205.915 196.219 208.034 197.278C210.153 198.338 214.462 198.938 220.961 199.08V203H166.923V199.08C173.704 198.938 178.083 198.373 180.061 197.384C182.039 196.325 183.417 194.947 184.194 193.252C184.971 191.486 185.359 186.294 185.359 177.676V100.116C185.359 89.6613 185.006 82.9507 184.3 79.9839C183.805 77.7235 182.887 76.0635 181.545 75.0039C180.273 73.9443 178.719 73.4146 176.883 73.4146C174.269 73.4146 170.631 74.5094 165.969 76.6992L164.38 73.4146Z" fill="white" fill-opacity="0.25"/>
<path d="M63.6179 67.2727L56.3714 88H49.8942L42.6477 67.2727H48.7202L53.0249 82.103H53.2408L57.532 67.2727H63.6179ZM75.2567 88.4048C73.1606 88.4048 71.3479 87.9595 69.8185 87.0689C68.2982 86.1693 67.1242 84.9188 66.2965 83.3175C65.4689 81.7071 65.055 79.8404 65.055 77.7173C65.055 75.5762 65.4689 73.705 66.2965 72.1037C67.1242 70.4934 68.2982 69.2429 69.8185 68.3523C71.3479 67.4527 73.1606 67.0028 75.2567 67.0028C77.3529 67.0028 79.1611 67.4527 80.6815 68.3523C82.2108 69.2429 83.3893 70.4934 84.217 72.1037C85.0446 73.705 85.4585 75.5762 85.4585 77.7173C85.4585 79.8404 85.0446 81.7071 84.217 83.3175C83.3893 84.9188 82.2108 86.1693 80.6815 87.0689C79.1611 87.9595 77.3529 88.4048 75.2567 88.4048ZM75.2837 83.9517C76.2373 83.9517 77.0335 83.6818 77.6722 83.142C78.311 82.5933 78.7923 81.8466 79.1161 80.902C79.449 79.9574 79.6154 78.8823 79.6154 77.6768C79.6154 76.4714 79.449 75.3963 79.1161 74.4517C78.7923 73.5071 78.311 72.7604 77.6722 72.2116C77.0335 71.6629 76.2373 71.3885 75.2837 71.3885C74.3211 71.3885 73.5115 71.6629 72.8548 72.2116C72.207 72.7604 71.7167 73.5071 71.3839 74.4517C71.06 75.3963 70.8981 76.4714 70.8981 77.6768C70.8981 78.8823 71.06 79.9574 71.3839 80.902C71.7167 81.8466 72.207 82.5933 72.8548 83.142C73.5115 83.6818 74.3211 83.9517 75.2837 83.9517ZM92.7656 88L87.125 67.2727H92.9411L96.1527 81.1989H96.3416L99.6882 67.2727H105.396L108.797 81.1179H108.972L112.13 67.2727H117.933L112.305 88H106.219L102.657 74.9645H102.401L98.8381 88H92.7656ZM129.926 88.4048C127.794 88.4048 125.958 87.973 124.42 87.1094C122.891 86.2367 121.712 85.0043 120.884 83.4119C120.057 81.8106 119.643 79.9169 119.643 77.7308C119.643 75.5987 120.057 73.7275 120.884 72.1172C121.712 70.5069 122.877 69.2519 124.379 68.3523C125.891 67.4527 127.663 67.0028 129.696 67.0028C131.064 67.0028 132.337 67.2232 133.515 67.6641C134.703 68.0959 135.737 68.7481 136.619 69.6207C137.509 70.4934 138.202 71.5909 138.697 72.9134C139.192 74.2268 139.439 75.7652 139.439 77.5284V79.1072H121.937V75.5447H134.028C134.028 74.7171 133.848 73.9839 133.488 73.3452C133.128 72.7064 132.629 72.2071 131.99 71.8473C131.36 71.4785 130.627 71.294 129.791 71.294C128.918 71.294 128.144 71.4964 127.47 71.9013C126.804 72.2971 126.282 72.8324 125.904 73.5071C125.526 74.1728 125.333 74.915 125.324 75.7337V79.1207C125.324 80.1463 125.513 81.0324 125.891 81.7791C126.278 82.5258 126.822 83.1016 127.524 83.5064C128.225 83.9112 129.057 84.1136 130.02 84.1136C130.659 84.1136 131.244 84.0237 131.774 83.8438C132.305 83.6638 132.759 83.3939 133.137 83.0341C133.515 82.6742 133.803 82.2334 134.001 81.7116L139.318 82.0625C139.048 83.34 138.494 84.4555 137.658 85.4091C136.83 86.3537 135.76 87.0914 134.446 87.6222C133.142 88.1439 131.635 88.4048 129.926 88.4048ZM148.939 60.3636V88H143.191V60.3636H148.939ZM170.79 73.1832L165.527 73.5071C165.437 73.0573 165.244 72.6525 164.947 72.2926C164.65 71.9238 164.259 71.6314 163.773 71.4155C163.296 71.1906 162.725 71.0781 162.059 71.0781C161.168 71.0781 160.417 71.267 159.805 71.6449C159.194 72.0137 158.888 72.5085 158.888 73.1293C158.888 73.6241 159.086 74.0424 159.482 74.3842C159.877 74.7261 160.557 75.0005 161.519 75.2074L165.271 75.9631C167.286 76.3769 168.788 77.0426 169.778 77.9602C170.767 78.8778 171.262 80.0833 171.262 81.5767C171.262 82.9351 170.862 84.1271 170.061 85.1527C169.269 86.1783 168.181 86.9789 166.795 87.5547C165.419 88.1214 163.831 88.4048 162.032 88.4048C159.288 88.4048 157.102 87.8336 155.474 86.6911C153.854 85.5395 152.905 83.9742 152.626 81.995L158.281 81.6982C158.451 82.5348 158.865 83.1735 159.522 83.6143C160.179 84.0462 161.02 84.2621 162.045 84.2621C163.053 84.2621 163.863 84.0687 164.474 83.6818C165.095 83.286 165.41 82.7777 165.419 82.157C165.41 81.6352 165.19 81.2079 164.758 80.875C164.326 80.5331 163.66 80.2723 162.761 80.0923L159.171 79.3771C157.147 78.9723 155.64 78.2706 154.651 77.272C153.67 76.2734 153.18 75.0005 153.18 73.4531C153.18 72.1217 153.54 70.9747 154.259 70.0121C154.988 69.0495 156.009 68.3073 157.322 67.7855C158.645 67.2637 160.192 67.0028 161.964 67.0028C164.582 67.0028 166.643 67.5561 168.145 68.6626C169.656 69.7692 170.538 71.276 170.79 73.1832Z" fill="black"/>
<circle cx="185.5" cy="193.5" r="22.5" fill="#F0EAD6"/>
<path d="M193.142 187C193.142 186.448 192.694 186 192.142 186L183.142 186C182.59 186 182.142 186.448 182.142 187C182.142 187.552 182.59 188 183.142 188L191.142 188L191.142 196C191.142 196.552 191.59 197 192.142 197C192.694 197 193.142 196.552 193.142 196L193.142 187ZM178.707 201.849L192.849 187.707L191.435 186.293L177.293 200.435L178.707 201.849Z" fill="black"/>
<defs>
<filter id="filter0_d_1_24" x="0" y="0" width="250" height="250" filterUnits="userSpaceOnUse" color-interpolation-filters="sRGB">
<feFlood flood-opacity="0" result="BackgroundImageFix"/>
<feColorMatrix in="SourceAlpha" type="matrix" values="0 0 0 0 0 0 0 0 0 0 0 0 0 0 0 0 0 0 127 0" result="hardAlpha"/>
<feOffset dy="-5"/>
<feGaussianBlur stdDeviation="12.5"/>
<feComposite in2="hardAlpha" operator="out"/>
<feColorMatrix type="matrix" values="0 0 0 0 0 0 0 0 0 0 0 0 0 0 0 0 0 0 0.25 0"/>
<feBlend mode="normal" in2="BackgroundImageFix" result="effect1_dropShadow_1_24"/>
<feBlend mode="normal" in="SourceGraphic" in2="effect1_dropShadow_1_24" result="shape"/>
</filter>
</defs>
</svg>
